# xmcd CD database file
# Generated: Thu Jul 11 10:21:13 2002 by KSCD
# 
# Track frame offsets:
#       150
#       12128
#       23776
#       34684
#       47358
#       60139
#       70344
#       84146
#       96284
#       105155
#       117736
#       126291
#       137366
#       149169
#       161052
#       172072
#       182580
#       194887
#       207626
#       220306
#       231791
#       244251
#
# Disc length: 3467 seconds
#
# Revision: 1
# Processed by: cddbd v1.4PL0 Copyright (c) Steve Scherf et al.
# Submitted via: Kscd 1.3.3
#
DISCID=3c0d8916
DTITLE=Various Artist - Gospel music - 100 and plus [CD3 of 5)
DYEAR=1900
DGENRE=
TTITLE0=Golden Gate Quartet - Joshua fit the battle of Jericho
TTITLE1=Golden Gate Quartet - Shadrak
TTITLE2=Golden Gate Quartet - Didn't it rain
TTITLE3=Golden Gate Quartet - Stormy weather
TTITLE4=Golden Gate Quartet - You better mind
TTITLE5=Golden Gate Quartet - Dipsy Doodle
TTITLE6=Golden Gate Quartet - Cheer the weary traveller
TTITLE7=Golden Gate Quartet - He said He would calm the ocean
TTITLE8=Golden Gate Quartet - Bonnett
TTITLE9=Golden Gate Quartet - Massa's in the cold ground
TTITLE10=Golden Gate Quartet - Pure religion
TTITLE11=Golden Gate Quartet - Motherless child
TTITLE12=Golden Gate Quartet - Golden Gate Gospel train
TTITLE13=Golden Gate Quartet - Job
TTITLE14=Golden Gate Quartet - What a time
TTITLE15=Golden Gate Quartet - My walking stick
TTITLE16=Golden Gate Quartet - The valley of time
TTITLE17=Golden Gate Quartet - Way down in Egypt land
TTITLE18=Golden Gate Quartet - Jezebel
TTITLE19=Golden Gate Quartet - God's gonna cut'em down
TTITLE20=Golden Gate Quartet - Wade in the water
TTITLE21=Golden Gate Quartet - Swing down chariot
EXTD=
EXTT0=
EXTT1=
EXTT2=
EXTT3=
EXTT4=
EXTT5=
EXTT6=
EXTT7=
EXTT8=
EXTT9=
EXTT10=
EXTT11=
EXTT12=
EXTT13=
EXTT14=
EXTT15=
EXTT16=
EXTT17=
EXTT18=
EXTT19=
EXTT20=
EXTT21=
PLAYORDER=
